<svg xmlns="http://www.w3.org/2000/svg" xmlns:xlink="http://www.w3.org/1999/xlink" width="400" zoomAndPan="magnify" viewBox="0 0 300 74.999997" height="100" preserveAspectRatio="xMidYMid meet" version="1.0"><defs><g/></defs><rect x="-30" width="360" fill="#ffffff" y="-7.5" height="89.999996" fill-opacity="1"/><rect x="-30" width="360" fill="#ffffff" y="-7.5" height="89.999996" fill-opacity="1"/><rect x="-30" width="360" fill="#ffffff" y="-7.5" height="89.999996" fill-opacity="1"/><g fill="#000000" fill-opacity="1"><g transform="translate(7.54688, 66.817386)"><g><path d="M 33.671875 -14.8125 C 33.910156 -13.257812 33.828125 -11.742188 33.421875 -10.265625 C 33.015625 -8.785156 32.351562 -7.414062 31.4375 -6.15625 C 30.175781 -4.457031 28.660156 -3.132812 26.890625 -2.1875 C 25.117188 -1.238281 23.222656 -0.625 21.203125 -0.34375 C 19.179688 -0.0703125 17.160156 -0.117188 15.140625 -0.484375 C 12.378906 -0.992188 9.765625 -1.910156 7.296875 -3.234375 C 4.835938 -4.554688 2.5 -6.054688 0.28125 -7.734375 C 1.019531 -8.492188 1.765625 -9.257812 2.515625 -10.03125 C 2.785156 -10.3125 3.050781 -10.585938 3.3125 -10.859375 C 4 -8.835938 5.125 -7.109375 6.6875 -5.671875 C 8.101562 -4.410156 9.695312 -3.585938 11.46875 -3.203125 C 13.25 -2.828125 15.0625 -2.828125 16.90625 -3.203125 C 18.84375 -3.585938 20.644531 -4.257812 22.3125 -5.21875 C 23.988281 -6.1875 25.304688 -7.570312 26.265625 -9.375 C 27.140625 -11.101562 27.398438 -12.84375 27.046875 -14.59375 C 26.691406 -16.351562 25.882812 -17.941406 24.625 -19.359375 C 23.226562 -20.847656 21.617188 -21.988281 19.796875 -22.78125 C 17.972656 -23.570312 16.097656 -24.234375 14.171875 -24.765625 C 14.046875 -24.804688 13.925781 -24.847656 13.8125 -24.890625 L 13.8125 -24.875 C 13.707031 -24.90625 13.609375 -24.9375 13.515625 -24.96875 C 12.773438 -25.195312 12.035156 -25.4375 11.296875 -25.6875 L 11.328125 -25.6875 C 9.460938 -26.28125 7.679688 -27.082031 5.984375 -28.09375 C 4.296875 -29.101562 2.90625 -30.445312 1.8125 -32.125 C 0.957031 -33.539062 0.503906 -35.046875 0.453125 -36.640625 C 0.410156 -38.234375 0.738281 -39.78125 1.4375 -41.28125 C 2.226562 -42.90625 3.34375 -44.253906 4.78125 -45.328125 C 6.21875 -46.410156 7.800781 -47.171875 9.53125 -47.609375 C 11.4375 -48.066406 13.363281 -48.171875 15.3125 -47.921875 C 17.132812 -47.753906 18.90625 -47.375 20.625 -46.78125 C 22.175781 -46.207031 23.664062 -45.445312 25.09375 -44.5 C 26.53125 -43.550781 27.769531 -42.4375 28.8125 -41.15625 L 26.296875 -38.90625 C 25.410156 -40.96875 24.128906 -42.75 22.453125 -44.25 C 21.078125 -45.582031 19.457031 -46.453125 17.59375 -46.859375 C 16.78125 -47.023438 15.929688 -47.125 15.046875 -47.15625 C 14.160156 -47.1875 13.3125 -47.109375 12.5 -46.921875 C 9.832031 -46.171875 8.109375 -44.460938 7.328125 -41.796875 C 6.796875 -39.992188 6.75 -38.175781 7.1875 -36.34375 C 7.707031 -34.664062 8.65625 -33.265625 10.03125 -32.140625 C 11.25 -31.109375 12.582031 -30.289062 14.03125 -29.6875 C 15.476562 -29.082031 16.96875 -28.578125 18.5 -28.171875 C 20.15625 -27.703125 21.789062 -27.132812 23.40625 -26.46875 C 25.03125 -25.800781 26.539062 -24.953125 27.9375 -23.921875 C 29.414062 -22.804688 30.664062 -21.46875 31.6875 -19.90625 C 32.71875 -18.34375 33.378906 -16.644531 33.671875 -14.8125 Z M 33.671875 -14.8125 "/></g></g></g><g fill="#000000" fill-opacity="1"><g transform="translate(41.563113, 66.817386)"><g><path d="M 8.21875 -5.421875 C 8.238281 -4.648438 8.300781 -3.851562 8.40625 -3.03125 C 8.507812 -2.207031 8.6875 -1.5 8.9375 -0.90625 C 9.1875 -0.3125 9.546875 -0.015625 10.015625 -0.015625 L 0.78125 -0.015625 C 1.195312 -0.015625 1.523438 -0.265625 1.765625 -0.765625 C 2.015625 -1.265625 2.203125 -1.878906 2.328125 -2.609375 C 2.453125 -3.335938 2.523438 -4.066406 2.546875 -4.796875 L 2.546875 -21.671875 C 2.546875 -22.578125 2.523438 -23.363281 2.484375 -24.03125 C 2.441406 -24.695312 2.382812 -25.265625 2.3125 -25.734375 C 2.238281 -26.203125 2.15625 -26.59375 2.0625 -26.90625 C 1.96875 -27.21875 1.867188 -27.460938 1.765625 -27.640625 C 1.671875 -27.816406 1.578125 -27.945312 1.484375 -28.03125 C 1.390625 -28.113281 1.300781 -28.164062 1.21875 -28.1875 C 1.132812 -28.207031 1.066406 -28.207031 1.015625 -28.1875 C 0.972656 -28.175781 0.945312 -28.164062 0.9375 -28.15625 L 2.546875 -29.0625 L 8.21875 -32.1875 Z M 19.0625 -63.046875 C 20.539062 -62.054688 21.6875 -60.796875 22.5 -59.265625 C 23.3125 -57.742188 23.6875 -56.140625 23.625 -54.453125 C 23.539062 -52.765625 23.023438 -51.238281 22.078125 -49.875 C 21.128906 -48.507812 19.925781 -47.523438 18.46875 -46.921875 L 18.46875 -5.421875 C 18.476562 -4.648438 18.535156 -3.851562 18.640625 -3.03125 C 18.753906 -2.207031 18.9375 -1.5 19.1875 -0.90625 C 19.4375 -0.3125 19.785156 -0.015625 20.234375 -0.015625 L 11.03125 -0.015625 C 11.445312 -0.015625 11.773438 -0.265625 12.015625 -0.765625 C 12.265625 -1.265625 12.445312 -1.878906 12.5625 -2.609375 C 12.675781 -3.335938 12.753906 -4.066406 12.796875 -4.796875 L 12.796875 -37.578125 C 12.796875 -38.472656 12.773438 -39.253906 12.734375 -39.921875 C 12.691406 -40.585938 12.632812 -41.15625 12.5625 -41.625 C 12.488281 -42.101562 12.398438 -42.492188 12.296875 -42.796875 C 12.203125 -43.109375 12.101562 -43.351562 12 -43.53125 C 11.90625 -43.71875 11.804688 -43.851562 11.703125 -43.9375 C 11.609375 -44.019531 11.523438 -44.066406 11.453125 -44.078125 C 11.378906 -44.097656 11.316406 -44.101562 11.265625 -44.09375 C 11.210938 -44.09375 11.179688 -44.085938 11.171875 -44.078125 L 12.796875 -44.96875 L 18.46875 -48.109375 L 18.46875 -47.703125 C 19.738281 -48.304688 20.773438 -49.210938 21.578125 -50.421875 C 22.378906 -51.640625 22.828125 -52.992188 22.921875 -54.484375 C 22.960938 -56.046875 22.601562 -57.53125 21.84375 -58.9375 C 21.09375 -60.351562 20.03125 -61.515625 18.65625 -62.421875 C 15.9375 -64.097656 12.925781 -64.488281 9.625 -63.59375 C 6.644531 -62.6875 4.144531 -60.84375 2.125 -58.0625 C 0.257812 -55.34375 -0.738281 -52.320312 -0.875 -49 C -1.007812 -45.675781 -0.296875 -42.566406 1.265625 -39.671875 C 1.390625 -40.515625 1.757812 -41.210938 2.375 -41.765625 C 2.988281 -42.328125 3.71875 -42.609375 4.5625 -42.609375 C 5.488281 -42.609375 6.273438 -42.28125 6.921875 -41.625 C 7.578125 -40.976562 7.90625 -40.191406 7.90625 -39.265625 C 7.90625 -38.347656 7.578125 -37.566406 6.921875 -36.921875 C 6.273438 -36.273438 5.488281 -35.953125 4.5625 -35.953125 C 3.914062 -35.953125 3.328125 -36.117188 2.796875 -36.453125 C 2.265625 -36.785156 1.859375 -37.234375 1.578125 -37.796875 C -0.453125 -40.703125 -1.519531 -44.039062 -1.625 -47.8125 C -1.675781 -51.832031 -0.628906 -55.390625 1.515625 -58.484375 C 3.648438 -61.398438 6.285156 -63.34375 9.421875 -64.3125 C 12.941406 -65.25 16.15625 -64.828125 19.0625 -63.046875 Z M 19.0625 -63.046875 "/></g></g></g><g fill="#000000" fill-opacity="1"><g transform="translate(62.365071, 66.817386)"><g><path d="M 9.171875 -17.953125 C 8.578125 -17.265625 8.085938 -16.675781 7.703125 -16.1875 L 7.703125 -5.375 C 7.722656 -4.613281 7.785156 -3.820312 7.890625 -3 C 7.992188 -2.175781 8.171875 -1.46875 8.421875 -0.875 C 8.671875 -0.28125 9.03125 0.015625 9.5 0.015625 L 0.28125 0.015625 C 0.6875 0.015625 1.007812 -0.226562 1.25 -0.71875 C 1.5 -1.21875 1.6875 -1.828125 1.8125 -2.546875 C 1.9375 -3.273438 2.007812 -4.007812 2.03125 -4.75 L 2.03125 -37.53125 C 2.03125 -38.4375 2.007812 -39.222656 1.96875 -39.890625 C 1.925781 -40.554688 1.867188 -41.125 1.796875 -41.59375 C 1.722656 -42.0625 1.640625 -42.453125 1.546875 -42.765625 C 1.453125 -43.078125 1.359375 -43.320312 1.265625 -43.5 C 1.171875 -43.675781 1.070312 -43.804688 0.96875 -43.890625 C 0.875 -43.972656 0.785156 -44.023438 0.703125 -44.046875 C 0.628906 -44.066406 0.566406 -44.066406 0.515625 -44.046875 C 0.460938 -44.035156 0.429688 -44.03125 0.421875 -44.03125 L 7.703125 -48.046875 L 7.703125 -17.34375 C 7.984375 -17.695312 8.296875 -18.078125 8.640625 -18.484375 C 9.910156 -19.960938 11.210938 -21.359375 12.546875 -22.671875 C 14.835938 -24.929688 17.082031 -26.8125 19.28125 -28.3125 C 22.0625 -30.1875 24.691406 -31.390625 27.171875 -31.921875 C 28.117188 -32.128906 29.046875 -32.234375 29.953125 -32.234375 L 29.953125 -26.421875 C 29.953125 -26.421875 29.484375 -26.5 28.546875 -26.65625 C 27.609375 -26.820312 26.390625 -26.910156 24.890625 -26.921875 C 23.398438 -26.929688 21.796875 -26.726562 20.078125 -26.3125 C 18.367188 -25.90625 16.707031 -25.160156 15.09375 -24.078125 C 14.351562 -23.410156 13.671875 -22.765625 13.046875 -22.140625 C 13.046875 -22.140625 13.039062 -22.140625 13.03125 -22.140625 C 13.03125 -22.140625 13.03125 -22.132812 13.03125 -22.125 L 31.71875 0.015625 L 24.3125 0.015625 Z M 9.171875 -17.953125 "/></g></g></g><g fill="#000000" fill-opacity="1"><g transform="translate(94.072012, 66.817386)"><g/></g></g><g fill="#000000" fill-opacity="1"><g transform="translate(103.38249, 66.817386)"><g><path d="M 1.203125 -48.15625 L 47.953125 -48.15625 L 47.953125 -45.703125 C 47.953125 -46.085938 47.734375 -46.394531 47.296875 -46.625 C 46.867188 -46.863281 46.332031 -47.046875 45.6875 -47.171875 C 45.039062 -47.296875 44.367188 -47.378906 43.671875 -47.421875 C 43.671875 -47.421875 42.882812 -47.421875 41.3125 -47.421875 C 39.738281 -47.421875 37.941406 -47.414062 35.921875 -47.40625 C 33.910156 -47.40625 32.140625 -47.398438 30.609375 -47.390625 C 29.078125 -47.390625 28.265625 -47.390625 28.171875 -47.390625 C 28.085938 -47.234375 28.015625 -47.054688 27.953125 -46.859375 C 27.703125 -46.066406 27.539062 -45.171875 27.46875 -44.171875 C 27.4375 -43.867188 27.414062 -43.578125 27.40625 -43.296875 C 27.394531 -43.054688 27.390625 -41 27.390625 -37.125 C 27.398438 -33.257812 27.40625 -28.789062 27.40625 -23.71875 C 27.414062 -18.644531 27.421875 -14.171875 27.421875 -10.296875 C 27.429688 -6.421875 27.445312 -4.351562 27.46875 -4.09375 C 27.539062 -3.070312 27.703125 -2.164062 27.953125 -1.375 C 28.015625 -1.175781 28.097656 -0.992188 28.203125 -0.828125 C 28.367188 -0.492188 28.570312 -0.265625 28.8125 -0.140625 C 28.875 -0.117188 28.9375 -0.101562 29 -0.09375 C 29.050781 -0.0820312 29.109375 -0.078125 29.171875 -0.078125 L 19.96875 -0.078125 C 20.34375 -0.078125 20.644531 -0.28125 20.875 -0.6875 C 21.113281 -1.101562 21.289062 -1.625 21.40625 -2.25 C 21.53125 -2.882812 21.625 -3.546875 21.6875 -4.234375 C 21.6875 -4.492188 21.6875 -6.5625 21.6875 -10.4375 C 21.695312 -14.320312 21.703125 -18.804688 21.703125 -23.890625 C 21.703125 -28.972656 21.703125 -33.488281 21.703125 -37.4375 C 21.710938 -41.394531 21.71875 -43.375 21.71875 -43.375 C 21.707031 -43.582031 21.695312 -43.796875 21.6875 -44.015625 C 21.601562 -45.390625 21.351562 -46.523438 20.9375 -47.421875 L 5.484375 -47.421875 C 4.796875 -47.378906 4.128906 -47.296875 3.484375 -47.171875 C 2.835938 -47.046875 2.296875 -46.863281 1.859375 -46.625 C 1.421875 -46.394531 1.203125 -46.085938 1.203125 -45.703125 Z M 1.203125 -48.15625 "/></g></g></g><g fill="#000000" fill-opacity="1"><g transform="translate(152.280824, 66.817386)"><g><path d="M 22.328125 0.015625 C 22.742188 0.015625 23.070312 -0.226562 23.3125 -0.71875 C 23.5625 -1.21875 23.742188 -1.828125 23.859375 -2.546875 C 23.972656 -3.273438 24.050781 -4.007812 24.09375 -4.75 L 24.09375 -26.140625 C 24.09375 -27.285156 23.925781 -28.21875 23.59375 -28.9375 C 23.257812 -29.65625 22.832031 -30.203125 22.3125 -30.578125 C 21.800781 -30.960938 21.253906 -31.222656 20.671875 -31.359375 C 20.085938 -31.492188 19.53125 -31.554688 19 -31.546875 C 18.46875 -31.546875 18.023438 -31.515625 17.671875 -31.453125 C 16.054688 -31.160156 14.625 -30.75 13.375 -30.21875 C 12.132812 -29.6875 11.085938 -29.144531 10.234375 -28.59375 C 9.171875 -27.914062 8.328125 -27.289062 7.703125 -26.71875 L 7.703125 -5.375 C 7.722656 -4.613281 7.785156 -3.820312 7.890625 -3 C 7.992188 -2.175781 8.171875 -1.46875 8.421875 -0.875 C 8.671875 -0.28125 9.03125 0.015625 9.5 0.015625 L 0.28125 0.015625 C 0.6875 0.015625 1.007812 -0.226562 1.25 -0.71875 C 1.5 -1.21875 1.6875 -1.828125 1.8125 -2.546875 C 1.9375 -3.273438 2.007812 -4.007812 2.03125 -4.75 L 2.03125 -37.53125 C 2.03125 -38.4375 2.007812 -39.222656 1.96875 -39.890625 C 1.925781 -40.554688 1.867188 -41.125 1.796875 -41.59375 C 1.722656 -42.0625 1.640625 -42.453125 1.546875 -42.765625 C 1.453125 -43.078125 1.359375 -43.320312 1.265625 -43.5 C 1.171875 -43.675781 1.070312 -43.804688 0.96875 -43.890625 C 0.875 -43.972656 0.785156 -44.023438 0.703125 -44.046875 C 0.628906 -44.066406 0.566406 -44.066406 0.515625 -44.046875 C 0.460938 -44.035156 0.429688 -44.03125 0.421875 -44.03125 L 2.03125 -44.921875 L 7.703125 -48.046875 L 7.703125 -27.6875 C 8.273438 -28.164062 8.984375 -28.671875 9.828125 -29.203125 C 11.003906 -29.984375 12.535156 -30.710938 14.421875 -31.390625 C 16.316406 -32.066406 18.53125 -32.4375 21.0625 -32.5 C 22.175781 -32.519531 23.1875 -32.40625 24.09375 -32.15625 C 25.570312 -31.75 26.769531 -31.019531 27.6875 -29.96875 C 28.476562 -29.03125 29.015625 -28.03125 29.296875 -26.96875 C 29.585938 -25.914062 29.738281 -24.972656 29.75 -24.140625 C 29.769531 -23.773438 29.769531 -23.457031 29.75 -23.1875 L 29.75 -5.375 C 29.769531 -4.613281 29.832031 -3.820312 29.9375 -3 C 30.050781 -2.175781 30.234375 -1.46875 30.484375 -0.875 C 30.734375 -0.28125 31.082031 0.015625 31.53125 0.015625 Z M 22.328125 0.015625 "/></g></g></g><g fill="#000000" fill-opacity="1"><g transform="translate(184.097731, 66.817386)"><g><path d="M 16.21875 -30.890625 C 17.726562 -31.585938 19.257812 -31.929688 20.8125 -31.921875 L 19.125 -27 C 19.125 -27 18.835938 -27.050781 18.265625 -27.15625 C 17.703125 -27.269531 16.984375 -27.335938 16.109375 -27.359375 C 15.242188 -27.378906 14.34375 -27.25 13.40625 -26.96875 C 12.476562 -26.695312 11.617188 -26.195312 10.828125 -25.46875 C 10.066406 -24.4375 9.535156 -23.660156 9.234375 -23.140625 C 9.234375 -23.140625 9.226562 -23.132812 9.21875 -23.125 C 9.1875 -23.03125 9.078125 -22.816406 8.890625 -22.484375 C 8.703125 -22.148438 8.5 -21.773438 8.28125 -21.359375 C 8.0625 -20.941406 7.867188 -20.578125 7.703125 -20.265625 L 7.703125 -5.375 C 7.722656 -4.613281 7.785156 -3.820312 7.890625 -3 C 7.992188 -2.175781 8.171875 -1.46875 8.421875 -0.875 C 8.671875 -0.28125 9.03125 0.015625 9.5 0.015625 L 0.28125 0.015625 C 0.6875 0.015625 1.007812 -0.226562 1.25 -0.71875 C 1.5 -1.21875 1.6875 -1.828125 1.8125 -2.546875 C 1.9375 -3.273438 2.007812 -4.007812 2.03125 -4.75 L 2.03125 -21.640625 C 2.03125 -22.523438 2.007812 -23.300781 1.96875 -23.96875 C 1.925781 -24.632812 1.867188 -25.203125 1.796875 -25.671875 C 1.722656 -26.140625 1.640625 -26.53125 1.546875 -26.84375 C 1.453125 -27.15625 1.359375 -27.398438 1.265625 -27.578125 C 1.171875 -27.753906 1.070312 -27.882812 0.96875 -27.96875 C 0.875 -28.0625 0.785156 -28.113281 0.703125 -28.125 C 0.628906 -28.144531 0.566406 -28.148438 0.515625 -28.140625 C 0.460938 -28.140625 0.429688 -28.132812 0.421875 -28.125 L 2.03125 -29.015625 L 7.703125 -32.15625 L 7.703125 -21.828125 C 7.953125 -22.296875 8.171875 -22.703125 8.359375 -23.046875 C 8.398438 -23.117188 8.441406 -23.195312 8.484375 -23.28125 C 8.535156 -23.363281 8.578125 -23.4375 8.609375 -23.5 C 8.648438 -23.5625 8.671875 -23.597656 8.671875 -23.609375 C 8.910156 -24.023438 9.273438 -24.582031 9.765625 -25.28125 C 10.265625 -25.976562 10.890625 -26.71875 11.640625 -27.5 C 13.085938 -29 14.613281 -30.128906 16.21875 -30.890625 Z M 16.21875 -30.890625 "/></g></g></g><g fill="#000000" fill-opacity="1"><g transform="translate(204.899677, 66.817386)"><g><path d="M 26.65625 -10.96875 C 26.65625 -10.96875 26.769531 -10.96875 27 -10.96875 C 27.238281 -10.96875 27.523438 -10.96875 27.859375 -10.96875 C 28.191406 -10.96875 28.507812 -10.96875 28.8125 -10.96875 C 29.125 -10.96875 29.359375 -10.96875 29.515625 -10.96875 C 28.929688 -9.070312 28.046875 -7.332031 26.859375 -5.75 C 25.671875 -4.175781 24.226562 -2.867188 22.53125 -1.828125 C 19.519531 -0.0976562 16.378906 0.507812 13.109375 0 C 9.847656 -0.507812 7.015625 -2.015625 4.609375 -4.515625 C 2.296875 -7.046875 0.867188 -9.976562 0.328125 -13.3125 C -0.210938 -16.644531 0.175781 -19.882812 1.5 -23.03125 C 1.5 -23.039062 1.5 -23.046875 1.5 -23.046875 C 2.820312 -26.203125 4.921875 -28.703125 7.796875 -30.546875 C 9.222656 -31.421875 10.769531 -32.035156 12.4375 -32.390625 C 13.351562 -32.566406 14.265625 -32.644531 15.171875 -32.625 C 16.078125 -32.613281 16.988281 -32.550781 17.90625 -32.4375 L 17.90625 -32.40625 C 20.894531 -31.789062 23.429688 -30.410156 25.515625 -28.265625 C 27.609375 -26.128906 29.050781 -23.617188 29.84375 -20.734375 C 29.53125 -20.734375 28.289062 -20.734375 26.125 -20.734375 C 23.957031 -20.734375 21.460938 -20.734375 18.640625 -20.734375 C 15.828125 -20.734375 13.234375 -20.734375 10.859375 -20.734375 C 8.484375 -20.734375 6.832031 -20.734375 5.90625 -20.734375 C 5.894531 -18.328125 6.25 -15.972656 6.96875 -13.671875 C 6.96875 -13.671875 6.972656 -13.644531 6.984375 -13.59375 C 6.992188 -13.550781 7.007812 -13.492188 7.03125 -13.421875 C 7.0625 -13.359375 7.085938 -13.289062 7.109375 -13.21875 C 7.140625 -13.144531 7.160156 -13.085938 7.171875 -13.046875 C 7.179688 -13.003906 7.1875 -12.984375 7.1875 -12.984375 C 7.757812 -11.285156 8.519531 -9.664062 9.46875 -8.125 C 10.414062 -6.582031 11.570312 -5.222656 12.9375 -4.046875 C 14.039062 -3.097656 15.300781 -2.382812 16.71875 -1.90625 C 18.132812 -1.425781 19.566406 -1.429688 21.015625 -1.921875 C 21.160156 -1.984375 21.3125 -2.046875 21.46875 -2.109375 C 21.90625 -2.328125 22.328125 -2.570312 22.734375 -2.84375 C 24.921875 -4.5625 26.226562 -7.269531 26.65625 -10.96875 Z M 5.9375 -21.46875 L 26.265625 -21.46875 C 25.554688 -24 24.34375 -26.253906 22.625 -28.234375 C 21.875 -29.085938 21.019531 -29.828125 20.0625 -30.453125 C 19.113281 -31.078125 18.078125 -31.5 16.953125 -31.71875 C 14.722656 -32.101562 12.578125 -31.828125 10.515625 -30.890625 C 9.410156 -30.304688 8.53125 -29.492188 7.875 -28.453125 C 7.21875 -27.421875 6.738281 -26.289062 6.4375 -25.0625 C 6.144531 -23.84375 5.976562 -22.644531 5.9375 -21.46875 Z M 5.9375 -21.46875 "/></g></g></g><g fill="#000000" fill-opacity="1"><g transform="translate(234.737192, 66.817386)"><g><path d="M 26.796875 -2.859375 C 26.742188 -2.742188 26.648438 -2.5625 26.515625 -2.3125 C 26.378906 -2.0625 26.222656 -1.785156 26.046875 -1.484375 C 25.867188 -1.140625 25.703125 -0.828125 25.546875 -0.546875 C 25.390625 -0.265625 25.285156 -0.0703125 25.234375 0.03125 C 25.234375 0.03125 25.03125 0.0390625 24.625 0.0625 C 24.21875 0.0820312 23.722656 0.078125 23.140625 0.046875 C 22.566406 0.0234375 22.003906 -0.0351562 21.453125 -0.140625 C 20.898438 -0.242188 20.46875 -0.414062 20.15625 -0.65625 C 19.59375 -1.15625 19.257812 -1.785156 19.15625 -2.546875 C 19.050781 -3.316406 19.019531 -4.085938 19.0625 -4.859375 C 19.070312 -5.148438 19.078125 -5.425781 19.078125 -5.6875 C 18.335938 -4.164062 17.269531 -2.929688 15.875 -1.984375 C 14.476562 -1.035156 12.953125 -0.4375 11.296875 -0.1875 C 9.773438 0.0625 8.257812 0.0195312 6.75 -0.3125 C 5.238281 -0.644531 3.882812 -1.304688 2.6875 -2.296875 C 1.457031 -3.367188 0.628906 -4.675781 0.203125 -6.21875 C -0.210938 -7.769531 -0.0976562 -9.304688 0.546875 -10.828125 C 1.285156 -12.328125 2.363281 -13.503906 3.78125 -14.359375 C 5.195312 -15.210938 6.664062 -15.890625 8.1875 -16.390625 C 9.875 -16.984375 11.5625 -17.578125 13.25 -18.171875 C 15.195312 -18.835938 17.132812 -19.515625 19.0625 -20.203125 C 19.0625 -21.773438 19.0625 -23.347656 19.0625 -24.921875 C 19.0625 -25.234375 19.066406 -25.554688 19.078125 -25.890625 C 19.140625 -26.742188 19.113281 -27.582031 19 -28.40625 C 18.769531 -29.40625 18.296875 -30.085938 17.578125 -30.453125 C 16.859375 -30.828125 16.035156 -31.039062 15.109375 -31.09375 C 13.609375 -31.226562 12.078125 -31.082031 10.515625 -30.65625 C 8.953125 -30.238281 7.65625 -29.445312 6.625 -28.28125 C 6.5 -28.539062 6.375 -28.796875 6.25 -29.046875 C 5.800781 -29.941406 5.351562 -30.84375 4.90625 -31.75 L 4.875 -31.84375 C 5.613281 -31.894531 6.351562 -31.953125 7.09375 -32.015625 C 9.125 -32.203125 11.164062 -32.269531 13.21875 -32.21875 C 15.269531 -32.175781 17.222656 -31.753906 19.078125 -30.953125 C 20.765625 -30.191406 22.113281 -29.078125 23.125 -27.609375 C 24.144531 -26.148438 24.6875 -24.492188 24.75 -22.640625 C 24.769531 -21.085938 24.773438 -18.914062 24.765625 -16.125 C 24.765625 -13.34375 24.757812 -10.882812 24.75 -8.75 C 24.75 -7.488281 24.75 -6.648438 24.75 -6.234375 C 24.75 -6.160156 24.75 -6.09375 24.75 -6.03125 C 24.738281 -5.507812 24.765625 -4.96875 24.828125 -4.40625 C 24.890625 -3.851562 25.066406 -3.410156 25.359375 -3.078125 C 25.648438 -2.742188 26.128906 -2.671875 26.796875 -2.859375 Z M 18.8125 -6.78125 C 18.894531 -6.988281 18.976562 -7.195312 19.0625 -7.40625 L 19.0625 -19.4375 C 18.5625 -19.257812 18.0625 -19.082031 17.5625 -18.90625 C 16.457031 -18.507812 15.359375 -18.117188 14.265625 -17.734375 C 13.796875 -17.566406 13.328125 -17.410156 12.859375 -17.265625 C 11.878906 -16.992188 10.9375 -16.644531 10.03125 -16.21875 C 8.976562 -15.644531 8.128906 -14.796875 7.484375 -13.671875 C 6.847656 -12.546875 6.460938 -11.40625 6.328125 -10.25 C 6.117188 -7.925781 6.691406 -5.816406 8.046875 -3.921875 C 8.722656 -3.003906 9.539062 -2.253906 10.5 -1.671875 C 11.070312 -1.347656 11.664062 -1.207031 12.28125 -1.25 C 12.894531 -1.289062 13.488281 -1.445312 14.0625 -1.71875 C 15.175781 -2.21875 16.125 -2.910156 16.90625 -3.796875 C 17.6875 -4.691406 18.320312 -5.6875 18.8125 -6.78125 Z M 18.8125 -6.78125 "/></g></g></g><g fill="#000000" fill-opacity="1"><g transform="translate(261.532317, 66.817386)"><g><path d="M 34.9375 0.03125 L 25.71875 0.03125 C 26.125 0.03125 26.445312 -0.203125 26.6875 -0.671875 C 26.9375 -1.140625 27.117188 -1.71875 27.234375 -2.40625 C 27.359375 -3.101562 27.441406 -3.8125 27.484375 -4.53125 C 25.296875 -2.46875 22.765625 -1.097656 19.890625 -0.421875 C 17.015625 0.253906 14.144531 0.148438 11.28125 -0.734375 C 8.90625 -1.503906 6.820312 -2.738281 5.03125 -4.4375 C 3.238281 -6.132812 1.898438 -8.144531 1.015625 -10.46875 C 0.140625 -12.78125 -0.191406 -15.160156 0.015625 -17.609375 C 0.222656 -20.054688 0.953125 -22.351562 2.203125 -24.5 C 3.472656 -26.625 5.125 -28.367188 7.15625 -29.734375 C 9.195312 -31.109375 11.441406 -31.972656 13.890625 -32.328125 C 16.398438 -32.660156 18.835938 -32.445312 21.203125 -31.6875 C 23.566406 -30.925781 25.664062 -29.671875 27.5 -27.921875 C 27.5 -28.128906 27.5 -28.53125 27.5 -29.125 C 27.507812 -30.53125 27.515625 -32.296875 27.515625 -34.421875 C 27.515625 -36.546875 27.488281 -38.234375 27.4375 -39.484375 C 27.4375 -39.609375 27.429688 -39.738281 27.421875 -39.875 C 27.410156 -40.519531 27.351562 -41.179688 27.25 -41.859375 C 27.15625 -42.535156 26.941406 -43.140625 26.609375 -43.671875 C 26.523438 -43.773438 26.414062 -43.875 26.28125 -43.96875 C 26.15625 -44.0625 26.019531 -44.078125 25.875 -44.015625 C 27.8125 -45.078125 29.753906 -46.15625 31.703125 -47.25 C 32.171875 -47.519531 32.648438 -47.785156 33.140625 -48.046875 C 33.140625 -48.023438 33.140625 -47.992188 33.140625 -47.953125 C 33.140625 -47.628906 33.140625 -46.378906 33.140625 -44.203125 C 33.140625 -41.503906 33.140625 -38.054688 33.140625 -33.859375 C 33.140625 -29.660156 33.140625 -25.414062 33.140625 -21.125 C 33.140625 -16.84375 33.140625 -13.21875 33.140625 -10.25 C 33.140625 -7.289062 33.140625 -5.6875 33.140625 -5.4375 C 33.160156 -4.5625 33.234375 -3.695312 33.359375 -2.84375 C 33.359375 -2.820312 33.359375 -2.796875 33.359375 -2.765625 C 33.398438 -2.453125 33.472656 -2.082031 33.578125 -1.65625 C 33.679688 -1.226562 33.835938 -0.835938 34.046875 -0.484375 C 34.253906 -0.140625 34.550781 0.03125 34.9375 0.03125 Z M 24.5625 -3.171875 C 25.644531 -3.859375 26.625 -4.664062 27.5 -5.59375 L 27.5 -26.875 C 26.019531 -28.425781 24.296875 -29.628906 22.328125 -30.484375 C 21.273438 -30.941406 20.1875 -31.28125 19.0625 -31.5 C 18.082031 -31.726562 17.109375 -31.773438 16.140625 -31.640625 C 14.097656 -31.191406 12.394531 -30.222656 11.03125 -28.734375 C 9.664062 -27.253906 8.613281 -25.53125 7.875 -23.5625 C 7.132812 -21.601562 6.691406 -19.664062 6.546875 -17.75 C 6.359375 -15.675781 6.484375 -13.53125 6.921875 -11.3125 C 7.359375 -9.101562 8.148438 -7.066406 9.296875 -5.203125 C 10.453125 -3.347656 12.015625 -1.90625 13.984375 -0.875 C 17.785156 -0.375 21.3125 -1.140625 24.5625 -3.171875 Z M 24.5625 -3.171875 "/></g></g></g></svg>