<?xml version="1.0" encoding="utf-8"?>
<!-- Generator: Adobe Illustrator 16.0.0, SVG Export Plug-In . SVG Version: 6.00 Build 0)  -->
<svg version="1.2" baseProfile="tiny" id="Layer_1" xmlns="http://www.w3.org/2000/svg" xmlns:xlink="http://www.w3.org/1999/xlink"
	 x="0px" y="0px" width="264.343px" height="56px" viewBox="0 0 264.343 56" xml:space="preserve">
<g>
	<path fill="#FFFFFF" d="M95.063,27.673c0-0.424-0.243-0.667-0.667-0.667h-1.273v-1.788h2.123c1.273,0,1.849,0.545,1.849,1.697
		v0.697c0,0.606-0.061,1.091-0.061,1.091h0.061c0.758-2.061,3.153-3.849,5.519-3.849c2.819,0,4.275,1.303,4.729,3.818h0.061
		c0.819-2.061,3.032-3.818,5.609-3.818c3.699,0,5.063,2.151,5.063,5.909v7.243c0,0.455,0.243,0.667,0.667,0.667h1.273v1.788h-2.152
		c-1.304,0-1.85-0.545-1.85-1.849v-7.333c0-2.485-0.516-4.545-3.305-4.545c-2.304,0-4.214,2.061-4.821,4.303
		c-0.212,0.667-0.273,1.394-0.273,2.212v7.212h-2.062v-9.182c0-2.303-0.333-4.545-3.214-4.545c-2.486,0-4.336,2.151-4.973,4.485
		c-0.182,0.636-0.242,1.333-0.242,2.03v7.212h-2.062V27.673z"/>
	<path fill="#FFFFFF" d="M129.381,24.854c4.214,0,6.397,3.242,6.397,7.03c0,0.364-0.061,1.03-0.061,1.03h-11.704
		c0.061,3.849,2.759,6.061,5.913,6.061c2.789,0,4.578-1.879,4.578-1.879l1,1.545c0,0-2.213,2.182-5.67,2.182
		c-4.518,0-7.974-3.273-7.974-7.97C121.862,27.854,125.288,24.854,129.381,24.854z M133.656,31.279
		c-0.121-3.151-2.062-4.697-4.305-4.697c-2.517,0-4.73,1.637-5.245,4.697H133.656z"/>
	<path fill="#FFFFFF" d="M145.145,24.854c4.093,0,5.063,2.606,5.063,2.606h0.061c0,0,0-0.272,0-0.576
		c0-1.091,0.485-1.667,1.729-1.667h2.122v1.788h-1.243c-0.424,0-0.667,0.212-0.667,0.667v12.424c0,4.849-3.578,6.728-7.337,6.728
		c-1.729,0-3.487-0.455-4.973-1.212l0.789-1.728c0,0,1.879,1.061,4.123,1.061c2.972,0,5.336-1.394,5.336-4.788v-1.333
		c0-0.576,0.03-1.091,0.03-1.091h-0.061c-0.91,1.667-2.426,2.637-4.791,2.637c-4.093,0-6.792-3.243-6.792-7.818
		C138.535,27.976,141.052,24.854,145.145,24.854z M150.178,32.552c0-4.455-2.123-5.818-4.821-5.818c-2.971,0-4.7,2.151-4.7,5.788
		c0,3.636,1.971,6,4.973,6C148.055,38.521,150.178,37.037,150.178,32.552z"/>
	<path fill="#FFFFFF" d="M165.366,31.067h0.849v-0.182c0-3.182-1.152-4.303-3.941-4.303c-0.758,0-2.971,0.212-2.971,1.333v0.97
		h-1.971V27.43c0-2.121,3.638-2.576,4.972-2.576c4.821,0,5.973,2.576,5.973,5.849v7.303c0,0.455,0.242,0.667,0.667,0.667h1.273
		v1.788h-2.092c-1.304,0-1.819-0.576-1.819-1.818c0-0.667,0.03-1.121,0.03-1.121h-0.061c0.031,0-1.243,3.303-5.063,3.303
		c-2.547,0-5.185-1.485-5.185-4.516C156.027,31.249,162.728,31.067,165.366,31.067z M161.545,39.067c2.911,0,4.669-3.03,4.669-5.667
		v-0.697h-0.879c-2.396,0-7.186,0.061-7.186,3.485C158.149,37.612,159.271,39.067,161.545,39.067z"/>
	<path fill="#FFFFFF" d="M172.974,30.521h8.853v2.606h-8.853V30.521z"/>
	<path fill="#FFFFFF" d="M186.494,35.552c0,0,1.971,2.273,4.608,2.273c1.183,0,2.092-0.485,2.092-1.516
		c0-2.182-8.156-2.151-8.156-7.151c0-3.091,2.79-4.516,6.003-4.516c2.092,0,5.427,0.697,5.427,3.212v1.606h-3.396v-0.757
		c0-0.728-1.091-1.091-1.94-1.091c-1.364,0-2.304,0.484-2.304,1.394c0,2.424,8.217,1.939,8.217,7.091
		c0,2.909-2.577,4.728-5.943,4.728c-4.245,0-6.428-2.758-6.428-2.758L186.494,35.552z"/>
	<path fill="#FFFFFF" d="M200.681,28.066h-2.001v-3.061h2.092v-4.212h3.76v4.212h3.517v3.061h-3.517v6.243
		c0,2.546,2.001,2.909,3.062,2.909c0.425,0,0.697-0.061,0.697-0.061v3.364c0,0-0.485,0.091-1.182,0.091
		c-2.153,0-6.428-0.636-6.428-5.818V28.066z"/>
	<path fill="#FFFFFF" d="M218.508,24.642c4.73,0,8.489,3.364,8.489,8.091c0,4.758-3.759,8.091-8.489,8.091
		c-4.699,0-8.459-3.333-8.459-8.091C210.049,28.006,213.809,24.642,218.508,24.642z M218.508,37.552
		c2.517,0,4.608-1.939,4.608-4.818c0-2.849-2.092-4.818-4.608-4.818c-2.486,0-4.578,1.97-4.578,4.818
		C213.93,35.612,216.021,37.552,218.508,37.552z"/>
	<path fill="#FFFFFF" d="M230.481,28.945c0-0.455-0.243-0.667-0.667-0.667h-1.213v-3.273h3.547c1.364,0,2.031,0.636,2.031,1.728
		v0.455c0,0.333-0.061,0.667-0.061,0.667h0.061c0.667-1.303,2.334-3.212,5.458-3.212c3.426,0,5.397,1.788,5.397,5.879v6.03
		c0,0.424,0.243,0.667,0.667,0.667h1.213v3.243h-3.669c-1.455,0-2.062-0.606-2.062-2.061v-7.091c0-1.879-0.485-3.151-2.426-3.151
		c-2.062,0-3.608,1.303-4.153,3.151c-0.212,0.636-0.303,1.333-0.303,2.061v7.091h-3.82V28.945z"/>
	<path fill="#FFFFFF" d="M256.28,24.642c4.426,0,6.852,3.243,6.852,7.333c0,0.455-0.091,1.424-0.091,1.424h-10.672
		c0.303,2.728,2.304,4.152,4.639,4.152c2.486,0,4.335-1.728,4.335-1.728l1.607,2.667c0,0-2.365,2.333-6.216,2.333
		c-5.124,0-8.307-3.697-8.307-8.091C248.427,27.976,251.641,24.642,256.28,24.642z M259.19,30.733
		c-0.061-1.849-1.334-3.121-2.91-3.121c-1.971,0-3.366,1.182-3.79,3.121H259.19z"/>
</g>
<path fill="#929497" d="M62.727,12.441L37.444,0L12.161,12.439v25.135l25.283,12.441l25.284-12.441L62.727,12.441z M60.802,14.587
	l0.001,20.843L39.625,25.009L60.802,14.587z M59.584,13.041l-22.14,10.895l-22.14-10.895l22.14-10.893L59.584,13.041z
	 M35.262,25.009L14.086,35.43V14.587L35.262,25.009z M15.304,36.977l22.14-10.894l22.141,10.894L37.444,47.87L15.304,36.977z"/>
<path fill="#FFFFFF" d="M49.604,5.984l-12.16,5.983L25.283,5.984L0,18.425v25.136L25.283,56l12.161-5.982L49.604,56l25.284-12.441
	V18.425L49.604,5.984z M1.926,20.572L24.32,31.59v21.791L1.926,42.361V20.572z M26.246,53.381V30.395L3.144,19.025L25.283,8.131
	l12.161,5.984l12.16-5.984l22.141,10.895L48.641,30.393v22.988L37.444,47.87L26.246,53.381z M50.567,53.38V31.589L72.963,20.57
	v21.789L50.567,53.38z"/>
</svg>
