<?xml version="1.0" encoding="utf-8"?>
<!-- Generator: Adobe Illustrator 24.0.0, SVG Export Plug-In . SVG Version: 6.00 Build 0)  -->
<svg version="1.1" id="Layer_1" xmlns="http://www.w3.org/2000/svg" xmlns:xlink="http://www.w3.org/1999/xlink" x="0px" y="0px"
	 viewBox="0 0 1040 290" style="enable-background:new 0 0 1040 290;" xml:space="preserve">
<style type="text/css">
	.st0{fill:#FFFFFF;}
	.st1{fill:#EA8F4E;}
	.st2{fill:#F0B44B;}
	.st3{fill:#4EADA6;}
	.st4{fill:#DE5E48;}
	.st5{fill:#3E92D0;}
	.st6{fill:#246EB4;}
</style>
<g>
	<g>
		<path class="st2" d="M28.4,141.2l0.2,38c0.1,10.5,8.6,18.9,19,18.8l37.8-0.2l-28.5-28.3L28.4,141.2z M205.5,75.6l-0.2-38
			c-0.1-10.5-8.6-18.9-19-18.8L148.4,19L177,47.3L205.5,75.6z"/>
		<path class="st3" d="M187.4,197.2c10.4-0.1,18.8-8.6,18.7-19.1l-0.2-38l-56.4,57.4L187.4,197.2z"/>
		<path class="st4" d="M25.4,95.6c-7.3,7.5-7.2,19.4,0.2,26.8l26.9,26.7L52,68.5L25.4,95.6z"/>
		<path class="st5" d="M77.2,173.7l26.9,26.7c7.4,7.3,19.3,7.3,26.7-0.2l26.6-27.1l-40.1,0.3L77.2,173.7z M156.6,43.2l-26.9-26.7
			c-7.4-7.3-19.4-7.3-26.7,0.2L76.5,43.7l40.1-0.3L156.6,43.2z"/>
		<path class="st4" d="M208.3,94.4l-26.9-26.7l0.5,80.6l26.6-27.1C215.7,113.8,215.7,101.8,208.3,94.4z"/>
		<path class="st3" d="M46.5,19.6c-10.4,0.1-18.8,8.6-18.7,19.1l0.2,38l56.4-57.4L46.5,19.6z"/>
		<path d="M391.2,197l-0.8-136.7l23.6-0.2l0.1,15.4l2.5-3.2c7.1-9.4,18.1-14.9,29.8-14.9c26.2-0.2,43.2,20,43.4,51.2
			c0.2,31.3-16.6,51.8-42.8,52c-11.8,0.1-22.1-5-30-14.8l-2.5-3.1l0.3,54L391.2,197z M438.1,78.3c-9,0-19,5.2-23.7,12.3l-0.2,0.4
			l0.2,36.4l0.2,0.4c4.8,7,15.1,12.3,23.9,12.2c15.9-0.1,26.9-12.9,26.8-31.1C465.2,90.6,454,78.2,438.1,78.3z M307.1,161.5
			c-27.1,0.2-46.1-21-46.3-51.4c-0.2-30.4,18.6-51.6,45.7-51.8c11.7-0.1,22.8,5.2,30,14.5l2.5,3.2V60.4l24.2-0.2l0.6,98.3l-24.2,0.2
			l-0.1-15.6l-2.5,3.2C329.2,156.2,318.9,161.5,307.1,161.5z M314.9,79.1c-16.8,0.1-29.8,13.7-29.7,30.9s13.3,30.8,30.1,30.7
			c8.8,0,19.1-5.4,23.7-12.5l0.2-0.4l-0.2-36.4l-0.2-0.4C334,84,324,79,314.9,79.1z M510.8,196.2L510,59.6l23.6-0.1l0.1,15.4
			l2.5-3.2c7.1-9.4,18.1-14.9,29.8-14.9c26.2-0.2,43.2,19.9,43.4,51.2c0.2,31.3-16.6,51.8-42.8,52c-11.8,0.1-22.1-5-30-14.8
			l-2.5-3.1l0.3,54L510.8,196.2z M557.7,77.6c-9,0-19,5.2-23.7,12.3l-0.3,0.4l0.2,36.4l0.2,0.4c4.8,7,15.1,12.2,23.9,12.2
			c15.9-0.1,26.9-12.9,26.8-31.1C584.8,89.9,573.7,77.5,557.7,77.6z M698,156.6L697.7,97c-0.1-13.6-6.6-20.2-20-20.1
			c-13,0.1-21.1,8.7-23.9,12.4l-0.3,0.4l0.4,67.3l-23.6,0.1l-0.6-98.2l23.6-0.2l0.1,15.4l2.5-2.9c6.2-7.3,18.3-15.1,34-15.2
			c20.1-0.1,31.4,10.7,31.6,30.6l0.4,69.9L698,156.6z M793.2,158.5c-30.8,0.2-52.4-20.9-52.6-51.4c-0.2-29.4,21.4-51.6,50.3-51.8
			c29.3-0.2,49.1,21.4,49.3,53.7v4.9l-74.9,0.5l0.3,1.6c2.3,14.4,14.2,23.7,30.4,23.6c8,0,19.3-3.2,26.3-9.3l10.3,15.1
			C823.4,153.6,808.7,158.4,793.2,158.5z M791,74.2c-17.4,0.1-24.8,12.5-25.8,23l-0.2,1.6l52.6-0.3l-0.2-1.5
			C816.5,86.4,809,74.2,791,74.2z"/>
		<polygon points="919,155.3 895.1,120.2 871.5,155.6 845.6,155.7 880.1,105 847.1,57.5 873.2,57.4 894.9,89.3 916.1,57.1 
			942.2,56.9 910,104.9 945.1,155.1 		"/>
		<path d="M999.6,157.3c-17.8,0.1-26.9-8.7-27-26.2l-0.3-53.9l-16.6,0.1l-0.1-20.4l16.6-0.1l-0.2-27.6l23.6-0.1l0.2,27.6l20.4-0.1
			l0.1,20.4L995.8,77l0.3,46.8c0,7.5,4.3,12.7,10.6,12.6c2.9,0,5.8-0.7,8.4-2.2l4.9,17.3C1015.6,155.2,1008.4,157.2,999.6,157.3z"/>
	</g>
	<g>
		<g>
			<g>
				<g>
					<g>
						<g>
							<g>
								<path class="st1" d="M701.1,208.8c-1.2,0.2-2,1.3-1.8,2.5c0.2,1.2,1.2,2.1,2.4,2c1.8-0.3,3.6,0.3,5.1,1.5
									c1.5,1.2,2.4,3,2.7,4.9c0.2,1.2,1.2,2.1,2.4,2c1.1-0.2,2-1.3,1.8-2.6c-0.4-3.2-1.9-6-4.3-8
									C706.9,209.2,704,208.4,701.1,208.8"/>
							</g>
							<g>
								<path class="st1" d="M702,198.8c-1.2,0.2-2,1.3-1.8,2.6c0.2,1.2,1.2,2.1,2.4,1.9c7.6-1.1,14.6,4.7,15.6,12.9
									c0.2,1.2,1.2,2.1,2.4,1.9c1.1-0.2,2-1.3,1.8-2.5C721,204.9,711.8,197.4,702,198.8"/>
							</g>
						</g>
						<g>
							<g>
								<path class="st6" d="M707.6,268.2c-6.2,0-10.3-5.1-10.3-10.9v-32.9c0-0.9,0.5-1.5,1.4-1.5h2.1c0.9,0,1.4,0.5,1.4,1.5v32.9
									c0,3,2,6.2,5.5,6.2c1.9,0,2.9-0.9,3.8-1.7c0.9-0.8,1.5-0.9,2.3-0.3l1.2,1c0.7,0.5,0.8,1.5,0.3,2.1
									C713.6,266.5,711.1,268.2,707.6,268.2"/>
							</g>
							<g>
								<path class="st6" d="M654.5,226.2c-1.6-2-4.1-3.7-7.6-3.7c-3,0-5.5,1.2-7.3,3.1c-1.9,2-3,4.8-3,7.8v2.2
									c-0.2,0.4-0.6,0.7-1.2,0.7h-1.4c-0.9,0-1.4,0.5-1.4,1.5v1.5c0,0.9,0.5,1.5,1.4,1.5h1.4c0.6,0,1,0.3,1.2,0.7v24.8
									c0,1,0.5,1.5,1.4,1.5h2.1c0.5,0,0.8-0.2,1.1-0.5c0.3-0.2,0.5-0.7,0.5-1.2v-23.8c0-1,0.5-1.5,1.4-1.5h5.2
									c0.9,0,1.4-0.5,1.4-1.5v-1.5c0-0.9-0.5-1.5-1.4-1.5h-5.2c-0.9,0-1.4-0.6-1.4-1.5v-1.6c0-1.7,0.6-3.3,1.7-4.5
									c0.9-0.9,2.1-1.5,3.6-1.5c1.9,0,2.9,0.9,3.8,1.7c0.9,0.8,1.5,0.9,2.3,0.3l0.1-0.1l1.1-0.8
									C654.9,227.7,655,226.8,654.5,226.2"/>
							</g>
							<g>
								<path class="st6" d="M685.4,226.2c-1.6-2-4.1-3.7-7.6-3.7c-3,0-5.5,1.2-7.3,3.1c-1.9,2-3,4.8-3,7.8v2.2
									c-0.2,0.4-0.6,0.7-1.2,0.7h-1.4c-0.9,0-1.4,0.5-1.4,1.5v1.5c0,0.9,0.5,1.5,1.4,1.5h1.4c0.6,0,1,0.3,1.2,0.7v24.8
									c0,1,0.5,1.5,1.4,1.5h2.1c0.5,0,0.8-0.2,1.1-0.5c0.3-0.2,0.5-0.7,0.5-1.2v-23.8c0-1,0.5-1.5,1.4-1.5h4.6
									c0.9,0,1.4-0.5,1.4-1.5v-1.5c0-0.9-0.5-1.5-1.4-1.5h-4.6c-0.9,0-1.4-0.6-1.4-1.5v-1.6c0-1.7,0.6-3.3,1.7-4.5
									c0.9-0.9,2.1-1.5,3.6-1.5c1.9,0,2.9,0.9,3.8,1.7c0.9,0.8,1.5,0.9,2.3,0.3l0.1-0.1l1.1-0.8
									C685.9,227.7,685.9,226.8,685.4,226.2"/>
							</g>
							<g>
								<path class="st6" d="M612.9,235.6c-0.2,0-0.4,0-0.6,0l0,0c-2.8,0-5.1,0.7-7.1,2c-0.4,0.2-0.8,0.8-0.8,1.4
									c0,0.2,0,0.4,0.2,0.7l0.8,1.6c0.4,0.8,0.9,1.2,1.8,0.7c1.2-0.7,3-1.4,5.1-1.4c0,0,0,0,0,0c3.5,0,5.5,3.1,5.5,6.1v1.6
									c0,0.9-0.5,1.5-1.4,1.5h-11.7h0c-1.8,0-2.8,1.1-2.8,3v4.6c0,0,0,0,0,0c0,5.4,3.6,10.3,9.2,10.9c0.1,0,0.1,0,0.2,0
									c0.3,0,0.6,0,1,0l0,0l0,0c0.4,0,0.7,0,1.1-0.1c0.1,0,0.1,0,0.2,0c0.3,0,0.6-0.1,0.9-0.1c0,0,0.1,0,0.1,0
									c1.4-0.3,2.5-0.8,3.2-1.3c0.3-0.2,0.6-0.2,0.9,0.3c0.2,0.3,0.5,0.6,1,0.6h1.6c0.9,0,1.4-0.5,1.4-1.5v-19.5
									C622.7,240.9,618.8,236,612.9,235.6 M617.5,259.5c0,0,0,0.1,0,0.1c0,0.1-0.1,0.1-0.1,0.2c-0.5,1.5-1.6,2.8-3.1,3.4
									c-0.6,0.2-1.2,0.4-1.9,0.4c-3.5,0-5.5-3.1-5.5-6.1v0c0-1,0.2-2,0.7-2.9c0.2-0.1,0.4-0.2,0.7-0.2h8.3c0.3,0,0.5,0.1,0.7,0.2
									c0.4,0.9,0.7,1.9,0.7,3C617.8,258,617.7,258.8,617.5,259.5"/>
							</g>
							<g>
								<path class="st6" d="M734.9,268.2c0.2,0,0.4,0,0.6,0l0,0c2.8,0,5.1-0.7,7.1-2c0.4-0.2,0.8-0.8,0.9-1.4c0-0.2,0-0.4-0.2-0.7
									l-0.8-1.6c-0.4-0.8-0.9-1.1-1.7-0.7c-1.2,0.7-3,1.4-5.2,1.4c0,0,0,0,0,0c-3.5,0-5.5-3.1-5.5-6.2v-1.6c0-0.9,0.5-1.5,1.4-1.5
									H743h0c1.7,0,2.8-1.1,2.8-3v-4.6v0c0-5.4-3.6-10.3-9.2-10.9c-0.1,0-0.1,0-0.2,0c-0.3,0-0.6,0-1,0l0,0l0,0
									c-0.4,0-0.7,0-1.1,0.1c-0.1,0-0.1,0-0.2,0c-0.3,0-0.6,0.1-0.9,0.1c0,0-0.1,0-0.1,0c-1.4,0.3-2.4,0.8-3.2,1.3
									c-0.3,0.2-0.6,0.2-0.9-0.3c-0.2-0.3-0.5-0.6-1-0.6h-1.6c-0.9,0-1.4,0.5-1.4,1.5v19.5C725.1,262.9,729,267.9,734.9,268.2
									 M730.3,244.4c0,0,0-0.1,0-0.1c0-0.1,0.1-0.1,0.1-0.2c0.6-1.5,1.6-2.8,3.2-3.4c0.6-0.2,1.2-0.4,1.9-0.4
									c3.5,0,5.5,3.1,5.5,6.1v0c0,1-0.2,2-0.7,2.9c-0.2,0.1-0.4,0.2-0.7,0.2h-8.3c-0.3,0-0.5-0.1-0.7-0.2
									c-0.4-0.9-0.6-1.9-0.6-2.9C730,245.8,730.1,245,730.3,244.4"/>
							</g>
						</g>
					</g>
				</g>
			</g>
		</g>
		<path d="M530.2,267.3c-0.3-0.6-0.5-1.6-0.7-3c-2.3,2.4-5,3.6-8.2,3.6c-2.8,0-5.2-0.8-7-2.4c-1.8-1.6-2.7-3.7-2.7-6.1
			c0-3,1.1-5.3,3.4-7c2.3-1.7,5.5-2.5,9.7-2.5h4.8v-2.3c0-1.7-0.5-3.1-1.5-4.1c-1-1-2.6-1.5-4.6-1.5c-1.8,0-3.2,0.4-4.4,1.3
			c-1.2,0.9-1.8,2-1.8,3.2h-5c0-1.4,0.5-2.8,1.5-4.2c1-1.3,2.4-2.4,4.2-3.2c1.8-0.8,3.7-1.2,5.8-1.2c3.3,0,5.9,0.8,7.8,2.5
			c1.9,1.7,2.9,4,2.9,6.9v13.3c0,2.7,0.3,4.8,1,6.3v0.4H530.2z M522,263.6c1.5,0,3-0.4,4.4-1.2c1.4-0.8,2.4-1.8,3-3.1v-5.9h-3.9
			c-6.1,0-9.1,1.8-9.1,5.3c0,1.5,0.5,2.8,1.5,3.6C519,263.1,520.4,263.6,522,263.6z"/>
		<path d="M549.5,238.4l0.2,3.6c2.2-2.8,5.1-4.2,8.7-4.2c6.1,0,9.2,3.4,9.2,10.3v19.1h-4.9v-19.1c0-2.1-0.5-3.6-1.4-4.6
			c-0.9-1-2.4-1.5-4.4-1.5c-1.6,0-3,0.4-4.2,1.3c-1.2,0.9-2.2,2-2.8,3.4v20.6h-4.9v-28.9H549.5z"/>
		<path d="M791.8,263.8c1.8,0,3.3-0.5,4.6-1.6c1.3-1.1,2-2.4,2.2-4h4.7c-0.1,1.7-0.7,3.2-1.7,4.7c-1.1,1.5-2.5,2.7-4.2,3.6
			c-1.8,0.9-3.6,1.3-5.6,1.3c-3.9,0-7.1-1.3-9.4-3.9c-2.3-2.6-3.5-6.2-3.5-10.8v-0.8c0-2.8,0.5-5.3,1.5-7.5c1-2.2,2.5-3.9,4.4-5.1
			c1.9-1.2,4.2-1.8,6.9-1.8c3.2,0,5.9,1,8.1,2.9c2.1,1.9,3.3,4.5,3.4,7.6h-4.7c-0.1-1.9-0.9-3.4-2.1-4.6c-1.3-1.2-2.8-1.8-4.7-1.8
			c-2.5,0-4.5,0.9-5.8,2.7c-1.4,1.8-2.1,4.4-2.1,7.8v0.9c0,3.3,0.7,5.9,2.1,7.7C787.3,262.9,789.3,263.8,791.8,263.8z"/>
		<path d="M810.3,252.6c0-2.8,0.6-5.4,1.7-7.6c1.1-2.3,2.7-4,4.7-5.2c2-1.2,4.3-1.8,6.8-1.8c3.9,0,7.1,1.4,9.6,4.1
			c2.4,2.7,3.6,6.3,3.6,10.9v0.3c0,2.8-0.5,5.3-1.6,7.6c-1.1,2.2-2.6,4-4.6,5.2c-2,1.2-4.3,1.9-6.9,1.9c-3.9,0-7.1-1.4-9.5-4.1
			c-2.4-2.7-3.6-6.3-3.6-10.8V252.6z M815.3,253.2c0,3.2,0.7,5.8,2.2,7.7c1.5,1.9,3.5,2.9,6,2.9c2.5,0,4.5-1,6-3
			c1.5-2,2.2-4.7,2.2-8.3c0-3.2-0.8-5.7-2.3-7.7c-1.5-2-3.5-3-6-3c-2.4,0-4.4,1-5.9,2.9C816,246.8,815.3,249.6,815.3,253.2z"/>
		<path d="M850.2,238.4l0.1,3.2c2.1-2.5,5-3.7,8.6-3.7c4,0,6.8,1.5,8.3,4.6c1-1.4,2.2-2.5,3.8-3.4c1.5-0.9,3.4-1.3,5.5-1.3
			c6.3,0,9.6,3.4,9.7,10.1v19.4h-4.9v-19.1c0-2.1-0.5-3.6-1.4-4.6s-2.5-1.5-4.8-1.5c-1.8,0-3.4,0.5-4.6,1.6
			c-1.2,1.1-1.9,2.6-2.1,4.4v19.2h-5v-18.9c0-4.2-2.1-6.3-6.2-6.3c-3.2,0-5.5,1.4-6.7,4.1v21.1h-4.9v-28.9H850.2z"/>
		<path d="M920.7,253.2c0,4.4-1,7.9-3,10.6c-2,2.7-4.7,4-8.2,4c-3.5,0-6.3-1.1-8.3-3.3v13.9h-4.9v-40h4.5l0.2,3.2
			c2-2.5,4.8-3.7,8.4-3.7c3.5,0,6.2,1.3,8.2,3.9c2,2.6,3,6.3,3,10.9V253.2z M915.7,252.7c0-3.3-0.7-5.8-2.1-7.7
			c-1.4-1.9-3.3-2.8-5.7-2.8c-3,0-5.2,1.3-6.7,4v13.8c1.5,2.6,3.7,4,6.8,4c2.4,0,4.3-0.9,5.7-2.8C915,259.1,915.7,256.4,915.7,252.7
			z"/>
		<path d="M947.5,267.3c-0.3-0.6-0.5-1.6-0.7-3c-2.3,2.4-5,3.6-8.2,3.6c-2.8,0-5.2-0.8-7-2.4c-1.8-1.6-2.7-3.7-2.7-6.1
			c0-3,1.1-5.3,3.4-7c2.3-1.7,5.5-2.5,9.7-2.5h4.8v-2.3c0-1.7-0.5-3.1-1.5-4.1c-1-1-2.6-1.5-4.6-1.5c-1.8,0-3.2,0.4-4.4,1.3
			c-1.2,0.9-1.8,2-1.8,3.2h-5c0-1.4,0.5-2.8,1.5-4.2c1-1.3,2.4-2.4,4.2-3.2c1.8-0.8,3.7-1.2,5.8-1.2c3.3,0,5.9,0.8,7.8,2.5
			c1.9,1.7,2.9,4,2.9,6.9v13.3c0,2.7,0.3,4.8,1,6.3v0.4H947.5z M939.3,263.6c1.5,0,3-0.4,4.4-1.2c1.4-0.8,2.4-1.8,3-3.1v-5.9h-3.9
			c-6.1,0-9.1,1.8-9.1,5.3c0,1.5,0.5,2.8,1.6,3.6C936.4,263.1,937.7,263.6,939.3,263.6z"/>
		<path d="M966.9,238.4l0.2,3.6c2.2-2.8,5.1-4.2,8.7-4.2c6.1,0,9.2,3.4,9.2,10.3v19.1H980v-19.1c0-2.1-0.5-3.6-1.4-4.6
			c-0.9-1-2.4-1.5-4.4-1.5c-1.6,0-3,0.4-4.2,1.3c-1.2,0.9-2.2,2-2.8,3.4v20.6h-4.9v-28.9H966.9z"/>
		<path d="M1004.6,260.1l6.7-21.7h5.3l-11.6,33.3c-1.8,4.8-4.7,7.2-8.6,7.2l-0.9-0.1l-1.8-0.3v-4l1.3,0.1c1.7,0,3-0.3,3.9-1
			c0.9-0.7,1.7-1.9,2.3-3.7l1.1-2.9L992,238.4h5.4L1004.6,260.1z"/>
	</g>
</g>
</svg>
